<mxfile host="Electron" modified="2023-07-30T02:46:13.862Z" agent="Mozilla/5.0 (X11; Linux x86_64) AppleWebKit/537.36 (KHTML, like Gecko) draw.io/21.6.1 Chrome/112.0.5615.204 Electron/24.6.1 Safari/537.36" etag="sPCAAN1YSKUR66ceRuwX" version="21.6.1" type="device">
  <diagram name="Page-1" id="UgkzKDdlbD2YLOSZ790F">
    <mxGraphModel dx="1434" dy="887" grid="1" gridSize="10" guides="1" tooltips="1" connect="1" arrows="1" fold="1" page="1" pageScale="1" pageWidth="850" pageHeight="1100" math="0" shadow="0">
      <root>
        <mxCell id="0" />
        <mxCell id="1" parent="0" />
        <mxCell id="6oxuOz3wnvCVODKfcnTl-27" style="edgeStyle=orthogonalEdgeStyle;rounded=1;orthogonalLoop=1;jettySize=auto;html=1;endArrow=diamondThin;endFill=0;endSize=14;labelBackgroundColor=none;fontColor=default;strokeColor=#A8201A;fontFamily=Courier New;exitX=0.5;exitY=0;exitDx=0;exitDy=0;" parent="1" source="6oxuOz3wnvCVODKfcnTl-1" target="6oxuOz3wnvCVODKfcnTl-6" edge="1">
          <mxGeometry relative="1" as="geometry">
            <Array as="points">
              <mxPoint x="560" y="520" />
              <mxPoint x="560" y="520" />
            </Array>
          </mxGeometry>
        </mxCell>
        <mxCell id="6oxuOz3wnvCVODKfcnTl-2" value="&lt;p style=&quot;margin:0px;margin-top:4px;text-align:center;&quot;&gt;&lt;b&gt;&lt;i&gt;Device&lt;/i&gt;&lt;/b&gt;&lt;/p&gt;&lt;hr size=&quot;1&quot;&gt;&lt;p style=&quot;margin:0px;margin-left:4px;&quot;&gt;+ id: String&lt;br&gt;+ name: String&lt;span style=&quot;background-color: initial;&quot;&gt;&amp;nbsp;&lt;/span&gt;&lt;/p&gt;&lt;hr style=&quot;border-color: var(--border-color);&quot; size=&quot;1&quot;&gt;&lt;p style=&quot;margin:0px;margin-left:4px;&quot;&gt;&lt;br&gt;&lt;/p&gt;" style="verticalAlign=top;align=left;overflow=fill;fontSize=12;fontFamily=Courier New;html=1;whiteSpace=wrap;labelBackgroundColor=none;fillColor=#FAE5C7;strokeColor=#0F8B8D;fontColor=#143642;" parent="1" vertex="1">
          <mxGeometry x="702.5" y="525.52" width="135" height="78.96" as="geometry" />
        </mxCell>
        <mxCell id="MMBglze7oxJYnEY_5B_9-8" style="edgeStyle=orthogonalEdgeStyle;shape=connector;rounded=1;orthogonalLoop=1;jettySize=auto;html=1;exitX=0.5;exitY=0;exitDx=0;exitDy=0;labelBackgroundColor=none;strokeColor=#A8201A;fontFamily=Courier New;fontSize=11;fontColor=default;endArrow=block;endFill=0;endSize=10;" parent="1" source="6oxuOz3wnvCVODKfcnTl-4" target="6oxuOz3wnvCVODKfcnTl-2" edge="1">
          <mxGeometry relative="1" as="geometry" />
        </mxCell>
        <mxCell id="6oxuOz3wnvCVODKfcnTl-4" value="&lt;p style=&quot;margin:0px;margin-top:4px;text-align:center;&quot;&gt;&lt;b style=&quot;&quot;&gt;Gateway&lt;/b&gt;&lt;/p&gt;&lt;hr size=&quot;1&quot;&gt;&lt;p style=&quot;margin:0px;margin-left:4px;&quot;&gt;+ ip: String&lt;br&gt;&lt;/p&gt;&lt;hr size=&quot;1&quot;&gt;&lt;p style=&quot;margin:0px;margin-left:4px;&quot;&gt;&lt;br&gt;&lt;/p&gt;" style="verticalAlign=top;align=left;overflow=fill;fontSize=12;fontFamily=Courier New;html=1;whiteSpace=wrap;labelBackgroundColor=none;fillColor=#FAE5C7;strokeColor=#0F8B8D;fontColor=#143642;" parent="1" vertex="1">
          <mxGeometry x="715" y="640" width="110" height="62.5" as="geometry" />
        </mxCell>
        <mxCell id="ANu52hJWCSjOefSWra2L-4" style="edgeStyle=orthogonalEdgeStyle;shape=connector;rounded=1;orthogonalLoop=1;jettySize=auto;html=1;exitX=0;exitY=0.5;exitDx=0;exitDy=0;labelBackgroundColor=none;strokeColor=#A8201A;fontFamily=Courier New;fontSize=11;fontColor=default;endArrow=none;endFill=0;endSize=10;" parent="1" source="6oxuOz3wnvCVODKfcnTl-5" target="6oxuOz3wnvCVODKfcnTl-2" edge="1">
          <mxGeometry relative="1" as="geometry" />
        </mxCell>
        <mxCell id="6oxuOz3wnvCVODKfcnTl-5" value="&lt;p style=&quot;margin:0px;margin-top:4px;text-align:center;&quot;&gt;&lt;b&gt;Location&lt;/b&gt;&lt;/p&gt;&lt;hr size=&quot;1&quot;&gt;&lt;p style=&quot;margin:0px;margin-left:4px;&quot;&gt;+ id: String&lt;/p&gt;&lt;p style=&quot;margin:0px;margin-left:4px;&quot;&gt;+ name: String&lt;/p&gt;" style="verticalAlign=top;align=left;overflow=fill;fontSize=12;fontFamily=Courier New;html=1;whiteSpace=wrap;labelBackgroundColor=none;fillColor=#FAE5C7;strokeColor=#0F8B8D;fontColor=#143642;" parent="1" vertex="1">
          <mxGeometry x="897.5" y="529.23" width="130" height="70.77" as="geometry" />
        </mxCell>
        <mxCell id="6oxuOz3wnvCVODKfcnTl-6" value="&lt;p style=&quot;margin:0px;margin-top:4px;text-align:center;&quot;&gt;&lt;b&gt;Application&lt;/b&gt;&lt;/p&gt;&lt;hr size=&quot;1&quot;&gt;&lt;p style=&quot;margin:0px;margin-left:4px;&quot;&gt;+ name: String&lt;/p&gt;&lt;hr size=&quot;1&quot;&gt;&lt;p style=&quot;margin:0px;margin-left:4px;&quot;&gt;&lt;br&gt;&lt;/p&gt;" style="verticalAlign=top;align=left;overflow=fill;fontSize=12;fontFamily=Courier New;html=1;whiteSpace=wrap;labelBackgroundColor=none;fillColor=#FAE5C7;strokeColor=#0F8B8D;fontColor=#143642;" parent="1" vertex="1">
          <mxGeometry x="486.88" y="424.96" width="146.25" height="60" as="geometry" />
        </mxCell>
        <mxCell id="6oxuOz3wnvCVODKfcnTl-47" style="edgeStyle=orthogonalEdgeStyle;shape=connector;rounded=1;orthogonalLoop=1;jettySize=auto;html=1;exitX=0.75;exitY=0;exitDx=0;exitDy=0;entryX=1;entryY=0.25;entryDx=0;entryDy=0;labelBackgroundColor=default;strokeColor=#A8201A;fontFamily=Courier New;fontSize=11;fontColor=#143642;endArrow=diamondThin;endFill=0;fillColor=#FAE5C7;endSize=14;" parent="1" source="6oxuOz3wnvCVODKfcnTl-2" target="6oxuOz3wnvCVODKfcnTl-2" edge="1">
          <mxGeometry relative="1" as="geometry">
            <Array as="points">
              <mxPoint x="804" y="510" />
              <mxPoint x="870" y="510" />
              <mxPoint x="870" y="545" />
            </Array>
          </mxGeometry>
        </mxCell>
        <mxCell id="ANu52hJWCSjOefSWra2L-3" style="edgeStyle=orthogonalEdgeStyle;shape=connector;rounded=1;orthogonalLoop=1;jettySize=auto;html=1;exitX=1;exitY=0.5;exitDx=0;exitDy=0;entryX=0;entryY=0.5;entryDx=0;entryDy=0;labelBackgroundColor=none;strokeColor=#A8201A;fontFamily=Courier New;fontSize=11;fontColor=default;endArrow=none;endFill=0;endSize=10;" parent="1" source="6oxuOz3wnvCVODKfcnTl-1" target="6oxuOz3wnvCVODKfcnTl-2" edge="1">
          <mxGeometry relative="1" as="geometry" />
        </mxCell>
        <mxCell id="6oxuOz3wnvCVODKfcnTl-1" value="&lt;p style=&quot;margin:0px;margin-top:4px;text-align:center;&quot;&gt;&lt;b style=&quot;background-color: initial;&quot;&gt;&lt;i&gt;Component&lt;/i&gt;&lt;/b&gt;&lt;br&gt;&lt;/p&gt;&lt;hr size=&quot;1&quot;&gt;&lt;p style=&quot;margin:0px;margin-left:4px;&quot;&gt;&lt;span style=&quot;background-color: initial;&quot;&gt;+ id: String&lt;/span&gt;&lt;/p&gt;&lt;p style=&quot;margin:0px;margin-left:4px;&quot;&gt;&lt;span style=&quot;background-color: initial;&quot;&gt;+ name: String&lt;/span&gt;&lt;/p&gt;" style="verticalAlign=top;align=left;overflow=fill;fontSize=12;fontFamily=Courier New;html=1;whiteSpace=wrap;labelBackgroundColor=none;fillColor=#FAE5C7;strokeColor=#0F8B8D;fontColor=#143642;" parent="1" vertex="1">
          <mxGeometry x="500.01" y="530" width="120" height="70" as="geometry" />
        </mxCell>
        <mxCell id="OdJVMO-tTa7zXgjn8MUh-8" style="edgeStyle=orthogonalEdgeStyle;shape=connector;rounded=1;orthogonalLoop=1;jettySize=auto;html=1;exitX=0.75;exitY=0;exitDx=0;exitDy=0;entryX=1;entryY=0.25;entryDx=0;entryDy=0;labelBackgroundColor=default;strokeColor=#A8201A;fontFamily=Courier New;fontSize=11;fontColor=#143642;endArrow=diamondThin;endFill=1;fillColor=#FAE5C7;endSize=12;" parent="1" source="6oxuOz3wnvCVODKfcnTl-5" target="6oxuOz3wnvCVODKfcnTl-5" edge="1">
          <mxGeometry relative="1" as="geometry">
            <Array as="points">
              <mxPoint x="995" y="510" />
              <mxPoint x="1060" y="510" />
              <mxPoint x="1060" y="547" />
            </Array>
          </mxGeometry>
        </mxCell>
        <mxCell id="MMBglze7oxJYnEY_5B_9-3" style="edgeStyle=orthogonalEdgeStyle;shape=connector;rounded=1;orthogonalLoop=1;jettySize=auto;html=1;exitX=0.5;exitY=0;exitDx=0;exitDy=0;entryX=0.5;entryY=1;entryDx=0;entryDy=0;labelBackgroundColor=none;strokeColor=#A8201A;fontFamily=Courier New;fontSize=11;fontColor=default;endArrow=none;endFill=0;endSize=10;" parent="1" source="MMBglze7oxJYnEY_5B_9-1" target="6oxuOz3wnvCVODKfcnTl-1" edge="1">
          <mxGeometry relative="1" as="geometry" />
        </mxCell>
        <mxCell id="MMBglze7oxJYnEY_5B_9-1" value="&lt;p style=&quot;margin:0px;margin-top:4px;text-align:center;&quot;&gt;&lt;b style=&quot;background-color: initial;&quot;&gt;&lt;i&gt;Properties&lt;/i&gt;&lt;/b&gt;&lt;br&gt;&lt;/p&gt;&lt;hr size=&quot;1&quot;&gt;&lt;p style=&quot;margin:0px;margin-left:4px;&quot;&gt;&lt;span style=&quot;background-color: initial;&quot;&gt;+ name: String&lt;/span&gt;&lt;br&gt;&lt;/p&gt;&lt;p style=&quot;margin:0px;margin-left:4px;&quot;&gt;+ value: String&lt;/p&gt;&lt;p style=&quot;margin:0px;margin-left:4px;&quot;&gt;&lt;br&gt;&lt;/p&gt;" style="verticalAlign=top;align=left;overflow=fill;fontSize=12;fontFamily=Courier New;html=1;whiteSpace=wrap;labelBackgroundColor=none;fillColor=#FAE5C7;strokeColor=#0F8B8D;fontColor=#143642;" parent="1" vertex="1">
          <mxGeometry x="490" y="632.5" width="140" height="70" as="geometry" />
        </mxCell>
        <mxCell id="MMBglze7oxJYnEY_5B_9-9" value="Has" style="text;html=1;strokeColor=none;fillColor=none;align=center;verticalAlign=middle;whiteSpace=wrap;rounded=0;fontSize=11;fontFamily=Courier New;fontColor=default;" parent="1" vertex="1">
          <mxGeometry x="520" y="499" width="50" height="30" as="geometry" />
        </mxCell>
        <mxCell id="MMBglze7oxJYnEY_5B_9-10" value="Described by" style="text;html=1;strokeColor=none;fillColor=none;align=center;verticalAlign=middle;whiteSpace=wrap;rounded=0;fontSize=11;fontFamily=Courier New;fontColor=default;" parent="1" vertex="1">
          <mxGeometry x="550" y="604" width="112" height="19.93" as="geometry" />
        </mxCell>
        <mxCell id="MMBglze7oxJYnEY_5B_9-11" value="Composes" style="text;html=1;strokeColor=none;fillColor=none;align=center;verticalAlign=middle;whiteSpace=wrap;rounded=0;fontSize=11;fontFamily=Courier New;fontColor=default;" parent="1" vertex="1">
          <mxGeometry x="600" y="489.91999999999996" width="60" height="20.04" as="geometry" />
        </mxCell>
        <mxCell id="MMBglze7oxJYnEY_5B_9-15" value="Has" style="text;html=1;strokeColor=none;fillColor=none;align=center;verticalAlign=middle;whiteSpace=wrap;rounded=0;fontSize=11;fontFamily=Courier New;fontColor=default;" parent="1" vertex="1">
          <mxGeometry x="1000" y="489.96" width="60" height="20" as="geometry" />
        </mxCell>
        <mxCell id="k4MrNBwa_ON_j0a-5Z7k-1" value="Represent" style="text;html=1;strokeColor=none;fillColor=none;align=center;verticalAlign=middle;whiteSpace=wrap;rounded=0;fontSize=11;fontFamily=Courier New;fontColor=default;" parent="1" vertex="1">
          <mxGeometry x="630" y="564.54" width="60" height="30" as="geometry" />
        </mxCell>
        <mxCell id="k4MrNBwa_ON_j0a-5Z7k-4" style="edgeStyle=orthogonalEdgeStyle;shape=connector;rounded=1;orthogonalLoop=1;jettySize=auto;html=1;exitX=1;exitY=0.5;exitDx=0;exitDy=0;entryX=0;entryY=0.5;entryDx=0;entryDy=0;labelBackgroundColor=none;strokeColor=#A8201A;fontFamily=Courier New;fontSize=11;fontColor=default;endArrow=none;endFill=0;endSize=10;" parent="1" source="k4MrNBwa_ON_j0a-5Z7k-2" target="6oxuOz3wnvCVODKfcnTl-1" edge="1">
          <mxGeometry relative="1" as="geometry">
            <Array as="points">
              <mxPoint x="450" y="540" />
              <mxPoint x="450" y="565" />
            </Array>
          </mxGeometry>
        </mxCell>
        <mxCell id="k4MrNBwa_ON_j0a-5Z7k-2" value="&lt;p style=&quot;margin:0px;margin-top:4px;text-align:center;&quot;&gt;&lt;i&gt;&amp;lt;&amp;lt;enumeration&amp;gt;&amp;gt;&lt;/i&gt;&lt;br&gt;&lt;b&gt;ComponentStatus&lt;/b&gt;&lt;/p&gt;&lt;hr size=&quot;1&quot;&gt;&lt;p style=&quot;margin:0px;margin-left:4px;&quot;&gt;Optimal&lt;/p&gt;&lt;p style=&quot;margin:0px;margin-left:4px;&quot;&gt;Degraded&lt;br&gt;&lt;/p&gt;&lt;p style=&quot;margin:0px;margin-left:4px;&quot;&gt;Fault&lt;/p&gt;&lt;p style=&quot;margin:0px;margin-left:4px;&quot;&gt;Uninitialized&lt;/p&gt;" style="verticalAlign=top;align=left;overflow=fill;fontSize=12;fontFamily=Courier New;html=1;whiteSpace=wrap;strokeColor=#0F8B8D;fontColor=#143642;fillColor=#FAE5C7;" parent="1" vertex="1">
          <mxGeometry x="295" y="484.5400000000001" width="130" height="110" as="geometry" />
        </mxCell>
        <mxCell id="k4MrNBwa_ON_j0a-5Z7k-5" value="Is in a" style="text;html=1;strokeColor=none;fillColor=none;align=center;verticalAlign=middle;whiteSpace=wrap;rounded=0;fontSize=11;fontFamily=Courier New;fontColor=default;" parent="1" vertex="1">
          <mxGeometry x="837.5" y="569.54" width="60" height="20" as="geometry" />
        </mxCell>
        <mxCell id="k4MrNBwa_ON_j0a-5Z7k-7" value="Is" style="text;html=1;strokeColor=none;fillColor=none;align=center;verticalAlign=middle;whiteSpace=wrap;rounded=0;fontSize=11;fontFamily=Courier New;fontColor=default;" parent="1" vertex="1">
          <mxGeometry x="460" y="539.54" width="30" height="30" as="geometry" />
        </mxCell>
        <mxCell id="k4MrNBwa_ON_j0a-5Z7k-9" value="" style="edgeStyle=orthogonalEdgeStyle;shape=connector;rounded=1;orthogonalLoop=1;jettySize=auto;html=1;exitX=0.75;exitY=0;exitDx=0;exitDy=0;labelBackgroundColor=none;strokeColor=#A8201A;fontFamily=Courier New;fontSize=11;fontColor=default;endArrow=diamondThin;endFill=0;endSize=14;entryX=1;entryY=0.25;entryDx=0;entryDy=0;" parent="1" source="6oxuOz3wnvCVODKfcnTl-1" target="6oxuOz3wnvCVODKfcnTl-1" edge="1">
          <mxGeometry x="0.1242" y="143" relative="1" as="geometry">
            <Array as="points">
              <mxPoint x="590" y="510" />
              <mxPoint x="660" y="510" />
              <mxPoint x="660" y="548" />
            </Array>
            <mxPoint x="-13" y="-60" as="offset" />
          </mxGeometry>
        </mxCell>
        <mxCell id="k4MrNBwa_ON_j0a-5Z7k-10" value="Contains" style="text;html=1;strokeColor=none;fillColor=none;align=center;verticalAlign=middle;whiteSpace=wrap;rounded=0;fontSize=11;fontFamily=Courier New;fontColor=default;" parent="1" vertex="1">
          <mxGeometry x="810" y="484.96" width="58" height="30" as="geometry" />
        </mxCell>
        <mxCell id="amVTd4cIFYr5nZaXsDXt-3" style="edgeStyle=orthogonalEdgeStyle;rounded=1;orthogonalLoop=1;jettySize=auto;html=1;exitX=1;exitY=0.5;exitDx=0;exitDy=0;entryX=0;entryY=0.5;entryDx=0;entryDy=0;labelBackgroundColor=none;endArrow=none;fontFamily=Courier New;strokeColor=#A8201A;endFill=0;endSize=10;" parent="1" source="amVTd4cIFYr5nZaXsDXt-2" target="6oxuOz3wnvCVODKfcnTl-1" edge="1">
          <mxGeometry relative="1" as="geometry">
            <Array as="points">
              <mxPoint x="450" y="656" />
              <mxPoint x="450" y="565" />
            </Array>
          </mxGeometry>
        </mxCell>
        <mxCell id="amVTd4cIFYr5nZaXsDXt-2" value="&lt;p style=&quot;margin:0px;margin-top:4px;text-align:center;&quot;&gt;&lt;b&gt;ComponentType&lt;/b&gt;&lt;/p&gt;&lt;hr size=&quot;1&quot;&gt;&lt;p style=&quot;margin:0px;margin-left:4px;&quot;&gt;+ name: String&lt;/p&gt;" style="verticalAlign=top;align=left;overflow=fill;fontSize=12;fontFamily=Courier New;html=1;whiteSpace=wrap;strokeColor=#0F8B8D;fontColor=#143642;fillColor=#FAE5C7;" parent="1" vertex="1">
          <mxGeometry x="295" y="632.5" width="130" height="47.5" as="geometry" />
        </mxCell>
      </root>
    </mxGraphModel>
  </diagram>
</mxfile>
